<svg width="469" height="614" viewBox="0 0 469 614" fill="none" xmlns="http://www.w3.org/2000/svg">
<path d="M207.326 137.929L206.217 136.265L206.06 136.369L205.926 136.501L207.326 137.929ZM214.826 141.429L216.808 141.699L216.826 141.565V141.429H214.826ZM212.326 147.929L213.436 149.593L213.645 149.453L213.813 149.267L212.326 147.929ZM204.326 144.929L202.333 145.099L202.349 145.28L202.397 145.456L204.326 144.929ZM263.884 140.224L262.775 138.559L262.618 138.664L262.484 138.795L263.884 140.224ZM271.384 143.724L273.365 143.993L273.384 143.859V143.724H271.384ZM268.884 150.224L269.993 151.887L270.202 151.748L270.371 151.561L268.884 150.224ZM260.884 147.224L258.891 147.393L258.906 147.575L258.954 147.75L260.884 147.224ZM245.304 149.23C245.47 148.138 244.719 147.118 243.627 146.952C242.535 146.786 241.515 147.536 241.349 148.628L245.304 149.23ZM180.539 111.034C180.044 112.022 180.445 113.224 181.433 113.718C182.421 114.212 183.622 113.812 184.116 112.824L180.539 111.034ZM209.817 106.363C210.886 106.644 211.98 106.007 212.261 104.939C212.543 103.871 211.905 102.777 210.837 102.495L209.817 106.363ZM268.752 104.014C267.694 104.331 267.094 105.446 267.412 106.504C267.729 107.562 268.845 108.162 269.903 107.845L268.752 104.014ZM291.458 118.139C291.85 119.172 293.005 119.691 294.037 119.299C295.07 118.907 295.589 117.752 295.197 116.719L291.458 118.139ZM161.307 94.7015C161.458 93.6072 160.693 92.5982 159.598 92.4477C158.504 92.2973 157.495 93.0624 157.345 94.1566L161.307 94.7015ZM249.827 265.511L249.259 263.594L249.259 263.594L249.827 265.511ZM215.794 267.791C215.994 266.705 215.275 265.662 214.189 265.462C213.103 265.262 212.06 265.981 211.86 267.067L215.794 267.791ZM267.167 304.348C268.138 304.874 269.352 304.513 269.878 303.541C270.403 302.57 270.042 301.356 269.071 300.83L267.167 304.348ZM389.327 438.429L391.326 438.367L389.327 438.429ZM254.328 555.929L252.629 554.874C252.623 554.884 252.617 554.894 252.611 554.904L254.328 555.929ZM311.27 373.455C311.009 372.382 309.927 371.724 308.854 371.986C307.781 372.248 307.123 373.33 307.384 374.403L311.27 373.455ZM61.8273 454.929L63.8211 454.771L61.8273 454.929ZM175.827 555.429L177.696 554.717C177.681 554.677 177.665 554.638 177.647 554.599L175.827 555.429ZM151.488 369.043C152.104 368.125 151.859 366.883 150.941 366.268C150.024 365.653 148.781 365.898 148.166 366.815L151.488 369.043ZM104.328 580.429L102.347 580.159C102.331 580.271 102.326 580.384 102.329 580.498L104.328 580.429ZM123.328 589.929L124.666 591.416C124.79 591.304 124.9 591.177 124.992 591.038L123.328 589.929ZM125.328 586.929H127.328C127.328 586.048 126.751 585.27 125.908 585.015C125.064 584.759 124.153 585.086 123.664 585.82L125.328 586.929ZM125.328 591.429H123.328C123.328 591.484 123.331 591.539 123.335 591.593L125.328 591.429ZM139.828 595.429L138.348 594.084C138.29 594.148 138.235 594.217 138.185 594.289L139.828 595.429ZM144.828 589.929H146.828C146.828 589.103 146.32 588.362 145.549 588.064C144.779 587.766 143.904 587.972 143.348 588.584L144.828 589.929ZM144.828 596.929L146.826 597.022C146.828 596.991 146.828 596.96 146.828 596.929H144.828ZM158.828 595.429L157.039 594.535C156.974 594.665 156.923 594.802 156.888 594.944L158.828 595.429ZM160.828 591.429L162.695 590.711C162.411 589.972 161.716 589.47 160.925 589.431C160.133 589.393 159.394 589.826 159.039 590.535L160.828 591.429ZM163.328 597.929L165.261 597.414C165.242 597.345 165.22 597.277 165.195 597.211L163.328 597.929ZM180.328 595.429L182.237 596.026C182.261 595.951 182.28 595.875 182.294 595.797L180.328 595.429ZM245.828 587.429L243.842 587.198C243.817 587.409 243.826 587.623 243.869 587.831L245.828 587.429ZM262.828 595.929L261.6 594.35C261.54 594.397 261.482 594.448 261.427 594.502L262.828 595.929ZM267.328 592.429H269.328C269.328 591.665 268.893 590.968 268.207 590.632C267.521 590.297 266.703 590.381 266.1 590.85L267.328 592.429ZM267.328 597.929H265.328C265.328 598.126 265.357 598.321 265.414 598.51L267.328 597.929ZM279.828 593.929L278.414 592.515C278.269 592.66 278.147 592.827 278.052 593.009L279.828 593.929ZM283.828 589.929L285.769 589.444C285.594 588.745 285.057 588.194 284.362 588.002C283.668 587.809 282.924 588.005 282.414 588.515L283.828 589.929ZM285.328 595.929L283.388 596.414C283.393 596.433 283.398 596.452 283.403 596.471L285.328 595.929ZM298.328 593.929L296.508 593.101C296.462 593.201 296.425 593.304 296.397 593.409L298.328 593.929ZM300.828 588.429L302.641 587.583C302.311 586.876 301.599 586.425 300.818 586.429C300.038 586.433 299.331 586.891 299.008 587.601L300.828 588.429ZM304.328 595.929L302.516 596.775C302.53 596.806 302.546 596.836 302.562 596.866L304.328 595.929ZM318.827 595.929L320.407 597.155C320.54 596.984 320.644 596.793 320.715 596.589L318.827 595.929ZM343.821 549.774C343.736 548.673 342.774 547.85 341.673 547.935C340.571 548.02 339.748 548.982 339.833 550.084L343.821 549.774ZM341.827 578.429L341.903 580.428C342.902 580.39 343.72 579.62 343.818 578.625L341.827 578.429ZM325.907 576.431C324.803 576.387 323.873 577.246 323.829 578.35C323.785 579.453 324.644 580.384 325.748 580.427L325.907 576.431ZM101.173 542.199C101.598 541.18 101.117 540.008 100.097 539.583C99.0779 539.158 97.9068 539.64 97.4815 540.659L101.173 542.199ZM92.3273 569.429H90.3273C90.3273 569.906 90.4981 570.368 90.8088 570.731L92.3273 569.429ZM104.944 574.926C106.047 574.861 106.888 573.915 106.824 572.812C106.759 571.71 105.813 570.868 104.71 570.932L104.944 574.926ZM201.873 210.505C201.086 209.729 199.819 209.739 199.044 210.525C198.269 211.312 198.278 212.578 199.065 213.354L201.873 210.505ZM262.026 221.571C262.933 220.94 263.156 219.693 262.525 218.787C261.894 217.88 260.648 217.657 259.741 218.287L262.026 221.571ZM5.96985 428.429L7.57601 427.237L5.96985 428.429ZM8.47144 333.429L10.4671 333.298L8.47144 333.429ZM53.9714 251.429L55.9292 251.838L55.9292 251.838L53.9714 251.429ZM41.4714 181.429L39.605 180.711L39.605 180.711L41.4714 181.429ZM134.471 78.4291L136.471 78.3708L136.471 78.3708L134.471 78.4291ZM125.971 37.4293L124.2 36.5009L124.2 36.5009L125.971 37.4293ZM332.971 75.4293L331.585 76.871L331.585 76.871L332.971 75.4293ZM453.471 270.929L455.211 269.942L455.211 269.942L453.471 270.929ZM462.471 384.929L464.457 384.689L464.456 384.677L464.454 384.666L462.471 384.929ZM466.471 417.929L468.457 417.688L468.457 417.688L466.471 417.929ZM418.971 421.429L418.711 423.412L418.711 423.412L418.971 421.429ZM34.9703 419.429L35.5177 421.353L35.5177 421.353L34.9703 419.429ZM208.435 139.593C209.278 139.032 210.405 138.993 211.368 139.435C212.323 139.872 212.826 140.629 212.826 141.429H216.826C216.826 138.729 215.079 136.736 213.035 135.798C210.998 134.865 208.375 134.826 206.217 136.265L208.435 139.593ZM212.844 141.159C212.608 142.893 212.365 143.934 212.067 144.691C211.79 145.396 211.435 145.929 210.839 146.591L213.813 149.267C214.642 148.346 215.294 147.413 215.789 146.156C216.264 144.95 216.558 143.533 216.808 141.699L212.844 141.159ZM211.217 146.265C210.148 146.978 209.345 147.4 208.741 147.607C208.149 147.81 207.919 147.749 207.863 147.729C207.815 147.712 207.605 147.628 207.287 147.103C206.958 146.561 206.61 145.703 206.256 144.402L202.397 145.456C202.792 146.905 203.258 148.172 203.867 149.177C204.486 150.199 205.339 151.083 206.541 151.504C207.735 151.922 208.942 151.767 210.038 151.391C211.12 151.02 212.255 150.38 213.436 149.593L211.217 146.265ZM206.319 144.759C206.215 143.539 206.273 142.858 206.525 142.218C206.792 141.54 207.366 140.691 208.726 139.357L205.926 136.501C204.414 137.983 203.374 139.301 202.803 140.753C202.216 142.243 202.21 143.654 202.333 145.099L206.319 144.759ZM264.993 141.888C265.836 141.326 266.963 141.288 267.926 141.729C268.881 142.167 269.384 142.923 269.384 143.724H273.384C273.384 141.024 271.637 139.03 269.593 138.093C267.556 137.159 264.933 137.121 262.775 138.559L264.993 141.888ZM269.402 143.454C269.166 145.187 268.923 146.229 268.625 146.985C268.347 147.69 267.993 148.223 267.397 148.886L270.371 151.561C271.199 150.64 271.852 149.707 272.347 148.45C272.821 147.245 273.116 145.828 273.365 143.993L269.402 143.454ZM267.774 148.56C266.705 149.272 265.903 149.695 265.299 149.902C264.706 150.105 264.477 150.043 264.42 150.023C264.373 150.007 264.163 149.922 263.845 149.398C263.516 148.855 263.168 147.997 262.813 146.697L258.954 147.75C259.35 149.2 259.815 150.467 260.424 151.471C261.044 152.493 261.896 153.378 263.099 153.799C264.293 154.217 265.5 154.061 266.595 153.686C267.678 153.315 268.813 152.675 269.993 151.887L267.774 148.56ZM262.877 147.054C262.773 145.833 262.831 145.152 263.082 144.513C263.35 143.834 263.923 142.985 265.284 141.652L262.484 138.795C260.972 140.277 259.932 141.596 259.361 143.047C258.774 144.537 258.768 145.948 258.891 147.393L262.877 147.054ZM241.349 148.628C240.494 154.249 239.247 157.382 237.934 159.193C236.698 160.898 235.304 161.57 233.648 161.991C230.346 162.829 224.695 162.483 220.64 168.855L224.015 171.003C226.96 166.375 230.059 167.029 234.632 165.868C236.913 165.288 239.237 164.21 241.173 161.54C243.032 158.976 244.409 155.109 245.304 149.23L241.349 148.628ZM220.64 168.855C216.794 174.9 216.752 181.194 220.221 185.871C223.625 190.459 230.019 192.954 237.96 192.425L237.693 188.434C230.635 188.904 225.779 186.649 223.433 183.487C221.153 180.414 220.861 175.958 224.015 171.003L220.64 168.855ZM184.116 112.824C186.522 108.012 188.906 105.598 192.36 104.64C196.034 103.62 201.306 104.119 209.817 106.363L210.837 102.495C202.299 100.244 196.093 99.4524 191.29 100.786C186.267 102.18 183.175 105.763 180.539 111.034L184.116 112.824ZM269.903 107.845C276.499 105.864 280.727 105.892 283.771 107.414C286.817 108.937 289.211 112.222 291.458 118.139L295.197 116.719C292.852 110.544 289.992 106.053 285.56 103.836C281.125 101.619 275.649 101.943 268.752 104.014L269.903 107.845ZM322.135 130.42C325.667 130.762 327.954 131.901 329.384 133.392C330.813 134.882 331.595 136.938 331.704 139.514C331.928 144.765 329.319 151.703 324.692 158.278L327.963 160.58C332.836 153.655 335.977 145.843 335.701 139.344C335.56 136.045 334.529 132.976 332.271 130.623C330.013 128.27 326.737 126.846 322.52 126.438L322.135 130.42ZM157.345 94.1566C149.231 153.167 155.024 201.399 171.552 232.48C179.83 248.048 190.849 259.395 204.234 265.536C217.638 271.686 233.211 272.521 250.396 267.429L249.259 263.594C232.851 268.456 218.293 267.585 205.902 261.9C193.494 256.207 183.054 245.591 175.083 230.602C159.113 200.569 153.249 153.305 161.307 94.7015L157.345 94.1566ZM250.396 267.429C263.556 263.529 277.665 256.155 292.525 245.03L290.127 241.828C275.548 252.743 261.86 259.86 249.259 263.594L250.396 267.429ZM211.86 267.067C209.809 278.217 202.399 290.121 196.764 297.182L199.891 299.677C205.689 292.411 213.569 279.89 215.794 267.791L211.86 267.067ZM247.862 265.884C249.703 275.572 250.899 283.275 253.392 289.4C255.966 295.725 259.929 300.43 267.167 304.348L269.071 300.83C262.63 297.344 259.314 293.34 257.097 287.892C254.798 282.245 253.687 275.111 251.792 265.138L247.862 265.884ZM285.477 300.423C294.848 299.72 305.765 303.582 317.042 311.126C328.283 318.646 339.682 329.694 349.948 342.996C370.502 369.628 386.284 404.984 387.328 438.491L391.326 438.367C390.249 403.799 374.031 367.653 353.115 340.552C342.647 326.988 330.944 315.613 319.266 307.801C307.625 300.013 295.807 295.636 285.178 296.435L285.477 300.423ZM387.328 438.491C388.232 467.464 380.306 487.174 367.41 506.27C360.928 515.868 353.197 525.3 344.644 535.713C336.107 546.106 326.78 557.443 317.204 570.761L320.451 573.097C329.942 559.897 339.191 548.653 347.735 538.251C356.263 527.869 364.119 518.29 370.725 508.508C384.004 488.846 392.26 468.323 391.326 438.367L387.328 438.491ZM320.561 570.932C313.812 559.193 307.136 552.237 296.792 549.742C286.703 547.31 273.448 549.227 253.856 553.986L254.8 557.873C274.481 553.092 286.832 551.455 295.854 553.631C304.619 555.745 310.557 561.558 317.093 572.926L320.561 570.932ZM256.027 556.984C276.413 524.169 295.221 498.392 306.369 470.931C317.597 443.274 321.116 413.844 311.27 373.455L307.384 374.403C317.04 414.014 313.56 442.584 302.663 469.427C291.686 496.466 273.245 521.689 252.629 554.874L256.027 556.984ZM199.067 296.571C166.751 283.706 130.164 303.515 102.856 335.798C75.4459 368.202 56.5779 414.011 59.8336 455.087L63.8211 454.771C60.669 415.002 78.9957 370.199 105.91 338.382C132.926 306.444 167.793 288.426 197.588 300.287L199.067 296.571ZM59.8336 455.087C63.4327 500.496 85.6278 523.045 113.776 557.69L116.881 555.168C88.5053 520.243 67.3027 498.698 63.8211 454.771L59.8336 455.087ZM116.076 558.284C127.743 553.581 136.485 551.224 145.255 551.062C154.026 550.9 163.004 552.931 175.149 557.31L176.506 553.548C164.167 549.098 154.657 546.888 145.181 547.063C135.703 547.238 126.436 549.795 114.581 554.574L116.076 558.284ZM177.647 554.599C158.095 511.735 142.396 479.027 136.165 450.065C129.979 421.316 133.159 396.379 151.488 369.043L148.166 366.815C129.18 395.13 125.861 421.193 132.254 450.906C138.602 480.407 154.56 513.623 174.008 556.259L177.647 554.599ZM113.544 555.526C112.371 557.846 111.206 559.799 110.079 561.616C108.966 563.409 107.841 565.145 106.839 566.902C104.778 570.511 103.137 574.361 102.347 580.159L106.31 580.699C107.019 575.497 108.458 572.133 110.312 568.885C111.267 567.213 112.308 565.61 113.478 563.725C114.633 561.863 115.865 559.798 117.113 557.332L113.544 555.526ZM102.329 580.498C102.506 585.641 102.916 589.747 103.699 592.791C104.459 595.741 105.707 598.245 108.018 599.341C110.379 600.46 113.017 599.728 115.544 598.355C118.138 596.946 121.163 594.567 124.666 591.416L121.991 588.442C118.538 591.549 115.798 593.665 113.635 594.84C111.405 596.052 110.293 595.993 109.731 595.726C109.118 595.436 108.269 594.496 107.573 591.794C106.902 589.184 106.501 585.432 106.327 580.361L102.329 580.498ZM124.992 591.038L126.992 588.038L123.664 585.82L121.664 588.82L124.992 591.038ZM123.328 586.929V591.429H127.328V586.929H123.328ZM123.335 591.593C123.766 596.824 124.37 600.646 125.229 603.197C125.657 604.467 126.201 605.59 126.953 606.416C127.762 607.305 128.833 607.864 130.101 607.824C131.256 607.788 132.284 607.262 133.129 606.654C133.996 606.032 134.86 605.187 135.717 604.223C137.432 602.295 139.355 599.619 141.471 596.569L138.185 594.289C136.057 597.356 134.26 599.842 132.728 601.565C131.963 602.425 131.322 603.028 130.796 603.406C130.249 603.799 129.997 603.825 129.976 603.826C129.976 603.826 129.986 603.826 130.003 603.829C130.02 603.833 130.033 603.838 130.04 603.841C130.055 603.848 130.009 603.831 129.912 603.725C129.694 603.486 129.369 602.957 129.02 601.92C128.325 599.857 127.749 596.444 127.322 591.265L123.335 591.593ZM141.308 596.774L146.308 591.274L143.348 588.584L138.348 594.084L141.308 596.774ZM142.828 589.929V596.929H146.828V589.929H142.828ZM142.83 596.836C142.576 602.304 143.03 606.368 144.105 609.042C144.647 610.389 145.415 611.558 146.505 612.301C147.664 613.092 148.992 613.266 150.279 612.925C151.492 612.603 152.591 611.849 153.551 610.917C154.524 609.972 155.453 608.747 156.316 607.311C158.043 604.439 159.608 600.556 160.769 595.914L156.888 594.944C155.799 599.302 154.364 602.795 152.888 605.25C152.149 606.478 151.425 607.406 150.764 608.048C150.089 608.704 149.571 608.974 149.253 609.058C149.008 609.123 148.891 609.087 148.759 608.997C148.558 608.859 148.189 608.477 147.817 607.55C147.064 605.678 146.58 602.304 146.826 597.022L142.83 596.836ZM160.617 596.324L162.617 592.324L159.039 590.535L157.039 594.535L160.617 596.324ZM158.962 592.147L161.462 598.647L165.195 597.211L162.695 590.711L158.962 592.147ZM161.396 598.444C162.425 602.304 163.716 605.405 165.261 607.551C166.791 609.676 168.859 611.226 171.4 611.007C173.827 610.797 175.862 609.023 177.52 606.611C179.222 604.136 180.807 600.596 182.237 596.026L178.42 594.832C177.049 599.209 175.609 602.33 174.224 604.345C172.794 606.424 171.679 606.968 171.056 607.022C170.547 607.066 169.665 606.823 168.508 605.214C167.366 603.628 166.231 601.054 165.261 597.414L161.396 598.444ZM182.294 595.797C183.656 588.523 184.179 582.561 183.499 576.213C182.821 569.885 180.959 563.285 177.696 554.717L173.958 556.141C177.165 564.563 178.895 570.798 179.521 576.64C180.145 582.462 179.684 588.005 178.362 595.061L182.294 595.797ZM252.611 554.904C245.059 567.555 245.265 574.967 243.842 587.198L247.815 587.66C249.265 575.202 249.018 568.726 256.046 556.954L252.611 554.904ZM243.869 587.831C244.798 592.356 245.784 595.859 246.928 598.399C248.047 600.885 249.49 602.841 251.57 603.632C253.731 604.454 255.904 603.776 257.85 602.628C259.807 601.473 261.927 599.616 264.229 597.356L261.427 594.502C259.16 596.727 257.33 598.29 255.818 599.183C254.294 600.082 253.478 600.078 252.992 599.893C252.425 599.678 251.561 598.947 250.575 596.757C249.614 594.622 248.698 591.462 247.787 587.027L243.869 587.831ZM264.056 597.508L268.556 594.008L266.1 590.85L261.6 594.35L264.056 597.508ZM265.328 592.429V597.929H269.328V592.429H265.328ZM265.414 598.51C266.179 601.029 266.985 603.115 267.96 604.516C268.456 605.228 269.093 605.91 269.934 606.324C270.843 606.771 271.822 606.823 272.765 606.523C273.638 606.245 274.398 605.694 275.055 605.068C275.724 604.431 276.388 603.618 277.057 602.672C278.393 600.783 279.889 598.162 281.604 594.849L278.052 593.009C276.358 596.283 274.964 598.705 273.791 600.362C273.206 601.19 272.71 601.777 272.296 602.171C271.871 602.577 271.625 602.689 271.551 602.712C271.547 602.713 271.639 602.705 271.701 602.736C271.704 602.737 271.661 602.716 271.577 602.636C271.493 602.556 271.38 602.427 271.243 602.232C270.656 601.387 269.994 599.827 269.242 597.348L265.414 598.51ZM281.242 595.343L285.242 591.343L282.414 588.515L278.414 592.515L281.242 595.343ZM281.888 590.414L283.388 596.414L287.269 595.444L285.769 589.444L281.888 590.414ZM283.403 596.471C284.545 600.532 285.779 603.502 287.152 605.377C287.845 606.322 288.671 607.125 289.672 607.577C290.741 608.061 291.87 608.079 292.928 607.668C293.917 607.284 294.73 606.571 295.395 605.78C296.069 604.977 296.681 603.985 297.239 602.876C298.356 600.659 299.367 597.765 300.26 594.449L296.397 593.409C295.54 596.594 294.613 599.199 293.667 601.076C293.195 602.014 292.743 602.717 292.332 603.207C291.911 603.709 291.615 603.887 291.478 603.94C291.411 603.966 291.399 603.969 291.321 603.933C291.173 603.866 290.843 603.645 290.379 603.013C289.44 601.731 288.361 599.326 287.254 595.388L283.403 596.471ZM300.149 594.757L302.649 589.257L299.008 587.601L296.508 593.101L300.149 594.757ZM299.016 589.275L302.516 596.775L306.141 595.083L302.641 587.583L299.016 589.275ZM302.562 596.866C303.519 598.671 304.462 600.393 305.469 601.718C306.46 603.023 307.754 604.273 309.528 604.63C311.366 604.998 313.133 604.302 314.801 603.066C316.466 601.833 318.298 599.872 320.407 597.155L317.247 594.703C315.213 597.324 313.645 598.944 312.42 599.852C311.197 600.757 310.583 600.761 310.316 600.708C309.985 600.641 309.45 600.346 308.654 599.299C307.874 598.272 307.073 596.835 306.095 594.992L302.562 596.866ZM320.715 596.589C322.17 592.427 323.073 588.896 323.135 584.956C323.198 581.03 322.424 576.841 320.74 571.343L316.915 572.515C318.539 577.817 319.189 581.555 319.136 584.892C319.083 588.216 318.332 591.284 316.939 595.269L320.715 596.589ZM196.626 299.48C204.508 312.236 211.635 319.19 218.731 322.036C225.957 324.933 232.724 323.41 239.382 320.329C242.698 318.794 246.058 316.841 249.483 314.797C252.934 312.738 256.454 310.585 260.2 308.567C267.67 304.541 275.871 301.145 285.477 300.423L285.178 296.435C274.783 297.215 266.014 300.89 258.303 305.045C254.458 307.117 250.834 309.333 247.434 311.362C244.007 313.406 240.808 315.261 237.702 316.699C231.515 319.562 225.985 320.635 220.22 318.323C214.325 315.959 207.766 309.899 200.029 297.378L196.626 299.48ZM339.833 550.084C340.733 561.684 340.856 567.878 339.837 578.233L343.818 578.625C344.866 567.968 344.733 561.527 343.821 549.774L339.833 550.084ZM341.751 576.43C335.375 576.673 331.979 576.672 325.907 576.431L325.748 580.427C331.928 580.673 335.428 580.674 341.903 580.428L341.751 576.43ZM97.4815 540.659C93.0161 551.363 90.3273 557.495 90.3273 569.429H94.3273C94.3273 558.363 96.7181 552.878 101.173 542.199L97.4815 540.659ZM90.8088 570.731C92.6797 572.913 95.1606 574.014 97.6431 574.544C100.108 575.069 102.694 575.057 104.944 574.926L104.71 570.932C102.582 571.057 100.417 571.045 98.477 570.632C96.5544 570.222 94.9749 569.445 93.8458 568.127L90.8088 570.731ZM199.065 213.354C210.375 224.499 219.704 231.218 229.585 232.688C239.555 234.172 249.559 230.247 262.026 221.571L259.741 218.287C247.52 226.793 238.597 229.985 230.173 228.732C221.659 227.465 213.125 221.593 201.873 210.505L199.065 213.354ZM7.57601 427.237C5.04032 423.82 4.03055 419.726 4.00068 414.488C3.97052 409.196 4.93654 402.948 6.19296 395.316C8.69377 380.125 12.2326 360.049 10.4671 333.298L6.47578 333.561C8.20805 359.809 4.74569 379.483 2.24608 394.667C1.00229 402.222 -0.0317075 408.818 0.000748234 414.511C0.0335057 420.257 1.149 425.288 4.36368 429.621L7.57601 427.237ZM10.4671 333.298C9.27815 315.282 18.3608 303.706 29.1226 292.174C39.7632 280.773 52.2875 269.266 55.9292 251.838L52.0137 251.02C48.6554 267.092 37.1818 277.676 26.1983 289.445C15.3362 301.084 5.16884 313.758 6.47578 333.561L10.4671 333.298ZM55.9292 251.838C58.8739 237.746 52.8806 226.09 47.8827 215.312C42.8047 204.362 38.6809 194.244 43.3379 182.148L39.605 180.711C34.2847 194.53 39.1954 206.087 44.2539 216.995C49.3925 228.076 54.6378 238.462 52.0137 251.02L55.9292 251.838ZM43.3379 182.148C52.8854 157.349 63.4632 141.898 73.8483 131.826C84.2174 121.769 94.4992 116.97 103.658 113.62C105.958 112.779 108.184 112.03 110.34 111.306C112.486 110.586 114.572 109.888 116.547 109.16C120.486 107.71 124.134 106.092 127.192 103.783C133.526 99.0018 136.857 91.6355 136.471 78.3708L132.472 78.4873C132.836 90.9725 129.729 96.8561 124.782 100.591C122.2 102.54 118.996 103.996 115.165 105.407C113.255 106.11 111.228 106.789 109.067 107.514C106.915 108.236 104.641 109.001 102.284 109.863C92.8187 113.326 81.9755 118.371 71.0634 128.954C60.1672 139.523 49.3075 155.509 39.605 180.711L43.3379 182.148ZM136.471 78.3708C136.229 70.089 132.531 62.0499 129.847 55.2528C128.471 51.7692 127.354 48.6187 126.888 45.7411C126.428 42.8957 126.632 40.4766 127.743 38.3577L124.2 36.5009C122.559 39.6319 122.393 43.003 122.94 46.3798C123.481 49.7243 124.747 53.228 126.127 56.7221C128.954 63.8806 132.257 71.0915 132.472 78.4873L136.471 78.3708ZM127.743 38.3577C136.127 22.3599 144.556 14.8624 152.211 12.2028C159.795 9.56806 167.097 11.5225 173.663 15.5704C180.252 19.6327 185.896 25.6914 189.927 30.8147C191.933 33.3637 193.518 35.6533 194.599 37.3022C195.139 38.1261 195.552 38.7886 195.829 39.2418C195.967 39.4683 196.071 39.6425 196.139 39.7581C196.174 39.816 196.199 39.8592 196.215 39.8871C196.223 39.901 196.229 39.9111 196.233 39.9172C196.234 39.9203 196.236 39.9224 196.236 39.9235C196.237 39.924 196.237 39.9241 196.237 39.9244C196.237 39.9242 196.236 39.9238 197.971 38.9291C199.707 37.9344 199.706 37.9335 199.705 37.9323C199.705 37.9315 199.704 37.9301 199.703 37.9286C199.702 37.9257 199.699 37.9218 199.696 37.9168C199.691 37.907 199.683 37.8931 199.672 37.8754C199.652 37.84 199.622 37.7891 199.583 37.7234C199.506 37.5921 199.392 37.4016 199.243 37.1582C198.946 36.6714 198.51 35.9722 197.944 35.109C196.813 33.3838 195.161 30.9978 193.071 28.3413C188.911 23.0538 182.926 16.582 175.762 12.1655C168.575 7.73482 160 5.2624 150.899 8.42429C141.869 11.5612 132.804 20.0838 124.2 36.5009L127.743 38.3577ZM214.471 29.9293C215.578 31.5953 215.578 31.5953 215.578 31.5952C215.579 31.595 215.579 31.5947 215.58 31.5941C215.581 31.5931 215.584 31.5913 215.588 31.5888C215.595 31.5839 215.607 31.5761 215.623 31.5657C215.655 31.5448 215.703 31.513 215.767 31.4709C215.896 31.3865 216.09 31.2605 216.346 31.0964C216.857 30.7683 217.613 30.2881 218.588 29.6852C220.539 28.4792 223.364 26.783 226.848 24.8301C233.821 20.921 243.405 15.9984 253.885 11.9178C264.383 7.83015 275.673 4.62931 286.084 4.08256C296.492 3.53595 305.786 5.64809 312.621 11.9044L315.322 8.95376C307.407 1.71003 296.888 -0.490349 285.874 0.0880682C274.863 0.666347 263.123 4.02807 252.433 8.19045C241.725 12.36 231.966 17.375 224.892 21.341C221.352 23.3255 218.478 25.0512 216.485 26.2828C215.489 26.8986 214.713 27.3912 214.184 27.731C213.919 27.9009 213.717 28.0327 213.579 28.1227C213.51 28.1676 213.458 28.2022 213.422 28.2258C213.404 28.2376 213.39 28.2466 213.381 28.2529C213.376 28.2561 213.372 28.2585 213.37 28.2603C213.368 28.2612 213.367 28.2619 213.366 28.2624C213.365 28.263 213.365 28.2634 214.471 29.9293ZM312.621 11.9044C319.773 18.4498 323.224 24.4336 324.78 29.9422C326.344 35.4785 326.051 40.7198 325.401 45.9329C324.766 51.0226 323.724 56.3805 324.115 61.4893C324.52 66.7903 326.442 71.9261 331.585 76.871L334.358 73.9877C329.969 69.7675 328.438 65.5708 328.103 61.1845C327.753 56.6062 328.684 51.9222 329.37 46.4281C330.04 41.0574 330.415 35.1731 328.629 28.8546C326.836 22.5085 322.92 15.9085 315.322 8.95376L312.621 11.9044ZM331.585 76.871C344.955 89.7265 363.018 94.754 376.988 100.258C384.091 103.057 390.091 105.942 394.324 109.901C398.456 113.766 400.971 118.719 400.971 125.929H404.971C404.971 117.598 401.987 111.592 397.056 106.98C392.227 102.463 385.602 99.3527 378.455 96.5366C363.925 90.812 346.988 86.1318 334.358 73.9877L331.585 76.871ZM400.971 125.929C400.971 138.607 397.932 148.975 394.8 159.811C391.675 170.624 388.471 181.867 388.471 195.929H392.471C392.471 182.491 395.518 171.735 398.643 160.922C401.761 150.133 404.971 139.251 404.971 125.929H400.971ZM388.471 195.929C388.471 216.073 400.126 226.867 413.575 236.673C427.138 246.562 442.38 255.439 451.732 271.917L455.211 269.942C445.315 252.507 429.057 243.01 415.932 233.44C402.693 223.787 392.471 214.037 392.471 195.929H388.471ZM451.732 271.917C461.95 289.919 462.743 306.888 461.641 325.083C460.543 343.208 457.51 362.804 460.489 385.193L464.454 384.666C461.542 362.786 464.509 343.883 465.634 325.325C466.754 306.836 465.993 288.94 455.211 269.942L451.732 271.917ZM460.486 385.17L464.486 418.17L468.457 417.688L464.457 384.689L460.486 385.17ZM464.486 418.17C464.706 419.985 464.46 421.216 464.018 422.067C463.585 422.899 462.863 423.564 461.749 424.071C459.39 425.145 455.634 425.354 450.792 424.904C446.034 424.463 440.598 423.429 435.085 422.33C429.62 421.241 424.065 420.082 419.232 419.446L418.711 423.412C423.377 424.026 428.764 425.148 434.303 426.253C439.796 427.348 445.427 428.423 450.423 428.887C455.335 429.343 460.018 429.254 463.406 427.712C465.166 426.911 466.644 425.687 467.567 423.912C468.48 422.155 468.744 420.059 468.457 417.688L464.486 418.17ZM419.232 419.446C413.544 418.698 405.905 418.704 399.773 418.886C396.689 418.977 393.954 419.114 391.989 419.229C391.006 419.286 390.215 419.337 389.669 419.374C389.396 419.393 389.184 419.408 389.04 419.419C388.968 419.424 388.912 419.428 388.875 419.431C388.856 419.432 388.842 419.433 388.832 419.434C388.827 419.434 388.823 419.435 388.821 419.435C388.819 419.435 388.818 419.435 388.817 419.435C388.817 419.435 388.817 419.435 388.817 419.435C388.816 419.435 388.816 419.435 388.969 421.429C389.121 423.423 389.121 423.423 389.121 423.423C389.121 423.423 389.122 423.423 389.122 423.423C389.122 423.423 389.123 423.423 389.124 423.423C389.126 423.423 389.129 423.423 389.133 423.423C389.142 423.422 389.155 423.421 389.172 423.42C389.207 423.417 389.26 423.413 389.329 423.408C389.468 423.398 389.674 423.383 389.941 423.365C390.476 423.329 391.253 423.278 392.221 423.222C394.158 423.109 396.854 422.974 399.891 422.884C406.001 422.703 413.364 422.709 418.711 423.412L419.232 419.446ZM61.9714 421.429C62.7104 419.571 62.7099 419.571 62.7093 419.57C62.709 419.57 62.7083 419.57 62.7078 419.57C62.7067 419.569 62.7054 419.569 62.7039 419.568C62.7009 419.567 62.697 419.566 62.6923 419.564C62.6828 419.56 62.6698 419.555 62.6535 419.549C62.6209 419.536 62.5747 419.518 62.5156 419.496C62.3972 419.451 62.2267 419.388 62.0077 419.31C61.57 419.154 60.9381 418.939 60.1428 418.693C58.5537 418.203 56.303 417.591 53.6378 417.096C48.3411 416.113 41.2445 415.564 34.4229 417.505L35.5177 421.353C41.5015 419.65 47.9055 420.101 52.908 421.029C55.3924 421.49 57.491 422.061 58.9638 422.515C59.6994 422.742 60.2765 422.939 60.6652 423.078C60.8594 423.147 61.0064 423.202 61.1022 423.238C61.1501 423.256 61.1853 423.269 61.2072 423.278C61.2181 423.282 61.2257 423.285 61.23 423.287C61.2321 423.288 61.2334 423.288 61.2338 423.288C61.234 423.288 61.234 423.288 61.2338 423.288C61.2337 423.288 61.2334 423.288 61.2333 423.288C61.2329 423.288 61.2325 423.288 61.9714 421.429ZM34.4229 417.505C31.3888 418.369 28.3732 419.922 25.5531 421.549C22.5852 423.262 20.1107 424.88 17.507 426.321C14.9677 427.727 12.8739 428.62 11.1829 428.801C10.3766 428.887 9.73121 428.802 9.19342 428.582C8.66443 428.365 8.11788 427.968 7.57601 427.237L4.36368 429.621C5.28169 430.858 6.38761 431.755 7.67632 432.283C8.95623 432.807 10.2938 432.919 11.6082 432.778C14.1587 432.506 16.858 431.252 19.444 429.821C21.9657 428.425 24.949 426.516 27.5523 425.014C30.3035 423.426 32.9726 422.077 35.5177 421.353L34.4229 417.505Z" fill="white"/>
<path d="M163.327 523.031C145.327 477.031 133.392 424.031 151.827 367.531C141.024 381.223 132.827 403.031 132.827 429.031C132.827 455.004 147.043 486.71 163.277 522.918L163.327 523.031Z" fill="white"/>
<path d="M254.827 555.531C261.327 526.531 320.327 460.031 309.327 374.031C315.172 398.275 315.826 410.927 314.327 432.531C307.827 477.031 288.667 504.424 254.827 555.531Z" fill="white"/>
<path d="M171.827 228.531C207.004 273.953 235.802 268.535 291.827 243.031C277.827 251.531 249.447 273.701 220.827 267.531C196.532 262.293 182.827 250.531 171.827 228.531Z" fill="white"/>
<path d="M161.469 190.429C159.893 160.877 158.859 131.859 160.969 94.9291C159.469 106.596 155.838 119.572 155.469 133.929C154.938 154.558 157.469 175.429 161.469 190.429Z" fill="white"/>
<path d="M312.967 306.429C279.469 290.429 231.614 340.103 215.969 328.429C200.323 316.755 190.454 304.61 148.969 300.429C166.66 293.696 175.661 291.837 188.967 294.429C202.969 297.157 204.969 313.429 221.969 319.929C238.969 326.429 262.117 297.029 287.967 296.929C298.411 296.889 312.967 306.429 312.967 306.429Z" fill="white"/>
<path d="M123.469 42.9291C148.686 11.6231 166.643 11.0272 195.969 37.429C195.969 37.429 176.924 6.9746 158.469 8.42905C139.874 9.89445 123.469 42.9291 123.469 42.9291Z" fill="white"/>
<path d="M326.469 47.4292C321.594 17.7842 309.09 7.96908 263.969 6.42918C263.969 6.42918 297.469 -5.57086 313.969 9.4291C330.469 24.4291 326.469 47.4292 326.469 47.4292Z" fill="white"/>
<path d="M461.47 370.429C462.594 390.983 464.245 399.118 467.47 420.929C467.47 420.929 459.364 399.429 454.97 372.929C449.278 338.606 463.808 316.265 450.97 283.929C438.792 253.257 393.97 218.929 396.97 218.929C399.97 218.929 451.957 255.549 459.97 282.929C467.983 310.309 463.634 348.406 461.47 370.429Z" fill="white"/>
<path d="M54.4738 197.929C44.6 163.929 90.9738 115.929 90.9738 115.929C90.9738 115.929 46.0718 150.743 40.9738 186.429C37.9738 207.429 49.8294 217.05 54.4738 236.929C63.4688 275.429 8.46887 287.567 8.46868 321.429C8.46849 355.291 3.8725 393.15 1.46966 412.929C0.297258 422.58 7.46876 431.929 11.4734 431.929C11.4734 431.929 2.19512 406.929 15.4688 361.429C20.7821 343.216 12.9637 340.429 26.9688 321.429C40.9738 302.429 33.4738 306.929 51.4688 278.429C69.4637 249.929 60.6946 219.35 54.4738 197.929Z" fill="white"/>
</svg>
